# xmcd
#
# Track frame offsets:
#	150
#	15761
#	26072
#	40833
#	58710
#	74121
#	92187
#	113399
#	129406
#	149115
#
# Disc length: 2219 seconds
#
# Revision: 1
# Processed by: cddbd v1.5.2PL0 Copyright (c) Steve Scherf et al.
# Submitted via: audiograbber 1.83.01
#
DISCID=8908a90a
DTITLE=Brett Williams - I Understand Brett Williams
DYEAR=1900
DGENRE=
TTITLE0=Another Paycheck Blown
TTITLE1=It´s Not Over Til It´s Over
TTITLE2=Midnight Train
TTITLE3=I Understand
TTITLE4=Someone Else Tonight
TTITLE5=Quirk Of Fate
TTITLE6=Odds 7 To 3
TTITLE7=Nothing Left To Say
TTITLE8=Country Gold
TTITLE9=A Thinking Man
EXTD=
EXTT0=
EXTT1=
EXTT2=
EXTT3=
EXTT4=
EXTT5=
EXTT6=
EXTT7=
EXTT8=
EXTT9=
PLAYORDER=
